<svg version="1.2" baseProfile="tiny" xmlns="http://www.w3.org/2000/svg" xmlns:xlink="http://www.w3.org/1999/xlink" width="225" height="314" fill="#d40000"><defs><path id="b" d="M28.5 0l20.112 29L28.5 58 8.388 29z"/><path id="a" d="M10.34 31.817v-2.812h2.585V24.37H0V21.1L13.986 0l2.285.008v21.09h3.96v3.27h-3.96l-.07 4.638h2.166v2.812H10.34zM12.925 7.72l-8.88 13.377h8.88V7.72z"/></defs><rect width="100%" height="100%" fill="#fefefe"/><use xlink:href="#a" transform="translate(7 12)"/><use xlink:href="#b" transform="matrix(.4 0 0 .4 6 51)"/><use xlink:href="#a" transform="rotate(180 109 151)"/><use xlink:href="#b" transform="matrix(-.4 0 0 -.4 218 263)"/><use xlink:href="#b" transform="translate(34 28)"/><use xlink:href="#b" transform="translate(134 28)"/><use xlink:href="#b" transform="rotate(180 45.5 143)"/><use xlink:href="#b" transform="rotate(180 95.5 143)"/></svg>